<svg xmlns="http://www.w3.org/2000/svg" xmlns:xlink="http://www.w3.org/1999/xlink" width="87.331" height="49" viewBox="0 0 87.331 49">
  <defs>
    <clipPath id="clip-path">
      <path id="Контур_130" data-name="Контур 130" d="M-175.537-121.139h87v-41.8h-87Z" transform="translate(175.537 162.936)" fill="#93a5ff"/>
    </clipPath>
  </defs>
  <g id="Сгруппировать_141" data-name="Сгруппировать 141" transform="translate(-1394 -4843)">
    <rect id="Прямоугольник_93" data-name="Прямоугольник 93" width="87.331" height="49" rx="5" transform="translate(1394 4843)" fill="#2d355d"/>
    <g id="paypal" transform="translate(1394 4846.16)">
      <g id="Сгруппировать_102" data-name="Сгруппировать 102" transform="translate(0)" clip-path="url(#clip-path)">
        <path id="Контур_120" data-name="Контур 120" d="M20.117-89.695a2.454,2.454,0,0,0-2.287-1.076h-3c-.211,0-.391.227-.424.536L13.16-78.526a.516.516,0,0,0,.059.306.235.235,0,0,0,.2.133h1.851l.465-4.36-.014.137c.032-.308.212-.535.422-.536h.879c1.728,0,3.081-1.038,3.476-4.04q.018-.133.031-.26a3.879,3.879,0,0,0-.407-2.549" transform="translate(11.088 104.484)" fill="#003087"/>
        <path id="Контур_121" data-name="Контур 121" d="M220.394-68.008c-.113,1.1-.68,1.1-1.229,1.1h-.312l.219-2.051c.013-.124.085-.215.17-.215h.143c.374,0,.726,0,.908.315a1.432,1.432,0,0,1,.1.853m-.239-2.867h-2.07c-.142,0-.262.152-.284.359l-.836,7.848a.347.347,0,0,0,.039.205.158.158,0,0,0,.131.09H218.2c.1,0,.183-.107.2-.251l.237-2.226c.022-.206.142-.359.284-.359h.655c1.364,0,2.15-.975,2.356-2.909a3.278,3.278,0,0,0-.264-1.975,1.626,1.626,0,0,0-1.508-.782" transform="translate(-166.533 88.369)" fill="#f7f8ff"/>
        <path id="Контур_122" data-name="Контур 122" d="M105.508-68.008c-.113,1.1-.68,1.1-1.229,1.1h-.312l.219-2.051c.013-.124.085-.215.17-.215h.143c.374,0,.726,0,.908.315a1.429,1.429,0,0,1,.1.853m-.239-2.867H103.2c-.141,0-.262.152-.284.359l-.837,7.848a.346.346,0,0,0,.039.205.157.157,0,0,0,.131.089h.988c.141,0,.262-.152.284-.359l.226-2.117c.022-.207.142-.359.284-.359h.655c1.364,0,2.15-.976,2.356-2.91a3.278,3.278,0,0,0-.264-1.975,1.626,1.626,0,0,0-1.508-.782m4.8,5.685c-.1.837-.545,1.4-1.119,1.4a.735.735,0,0,1-.665-.4,1.72,1.72,0,0,1-.155-1.029c.089-.83.546-1.41,1.111-1.41a.737.737,0,0,1,.661.4,1.735,1.735,0,0,1,.168,1.036m1.381-2.853h-.991c-.085,0-.158.091-.171.216l-.043.41-.069-.148a1.2,1.2,0,0,0-1.171-.615c-1.095,0-2.03,1.227-2.212,2.948a3.805,3.805,0,0,0,.369,2.252,1.36,1.36,0,0,0,1.248.745,1.751,1.751,0,0,0,1.372-.838l-.044.407a.346.346,0,0,0,.039.206.157.157,0,0,0,.131.089h.892c.141,0,.262-.152.284-.359l.536-5.017a.346.346,0,0,0-.039-.206.158.158,0,0,0-.131-.089" transform="translate(-66.407 88.369)" fill="#93a5ff"/>
        <path id="Контур_123" data-name="Контур 123" d="M256.783-53.709c-.1.837-.545,1.4-1.119,1.4a.735.735,0,0,1-.665-.4,1.72,1.72,0,0,1-.155-1.029c.089-.83.546-1.41,1.111-1.41a.737.737,0,0,1,.661.4,1.735,1.735,0,0,1,.168,1.036m1.381-2.853h-.991c-.085,0-.158.091-.171.216l-.043.41-.069-.148a1.2,1.2,0,0,0-1.171-.615c-1.095,0-2.03,1.227-2.212,2.948a3.805,3.805,0,0,0,.369,2.252,1.36,1.36,0,0,0,1.248.745,1.751,1.751,0,0,0,1.372-.838l-.044.407a.345.345,0,0,0,.039.206.157.157,0,0,0,.131.089h.892c.141,0,.262-.152.284-.359l.536-5.017a.346.346,0,0,0-.039-.206.157.157,0,0,0-.131-.089" transform="translate(-198.356 76.887)" fill="#f7f8ff"/>
        <path id="Контур_124" data-name="Контур 124" d="M184.826-55.974h-1a.278.278,0,0,0-.237.187l-1.374,2.993-.582-2.876c-.037-.18-.148-.3-.276-.3h-.979a.165.165,0,0,0-.14.107.36.36,0,0,0-.023.231l1.1,4.762-1.032,2.153a.362.362,0,0,0-.012.265.179.179,0,0,0,.153.138h1a.278.278,0,0,0,.236-.183l3.312-7.071a.361.361,0,0,0,.011-.264.178.178,0,0,0-.153-.137" transform="translate(-134.501 76.3)" fill="#93a5ff"/>
        <path id="Контур_125" data-name="Контур 125" d="M293.267-70.657l-.85,7.992a.347.347,0,0,0,.039.205.158.158,0,0,0,.131.089h.854c.141,0,.262-.152.284-.359l.838-7.848a.346.346,0,0,0-.039-.206.157.157,0,0,0-.131-.089h-.956c-.085,0-.157.091-.171.215" transform="translate(-232.291 88.367)" fill="#f7f8ff"/>
        <path id="Контур_126" data-name="Контур 126" d="M20.117-89.695a2.454,2.454,0,0,0-2.287-1.076h-3c-.211,0-.391.227-.424.536L13.16-78.526a.516.516,0,0,0,.059.306.235.235,0,0,0,.2.133h1.851l.465-4.36-.014.137c.032-.308.212-.535.422-.536h.879c1.728,0,3.081-1.038,3.476-4.04q.018-.133.031-.26a3.879,3.879,0,0,0-.407-2.549" transform="translate(11.088 104.484)" fill="#003087"/>
        <path id="Контур_127" data-name="Контур 127" d="M16.227-87.129c.029-.27.186-.468.371-.468h2.35a3.379,3.379,0,0,1,.775.083,2.393,2.393,0,0,1,.384.127,1.8,1.8,0,0,1,.414.244,3.877,3.877,0,0,0-.406-2.549,2.455,2.455,0,0,0-2.287-1.075h-3c-.211,0-.391.227-.424.536L13.158-78.525a.517.517,0,0,0,.058.307.235.235,0,0,0,.2.133h1.851l.465-4.361Z" transform="translate(11.09 104.482)" fill="#93a5ff"/>
        <path id="Контур_128" data-name="Контур 128" d="M33.934-71.7q-.014.13-.031.26c-.4,3-1.748,4.04-3.476,4.04h-.88c-.211,0-.39.228-.422.536l-.45,4.223-.128,1.2a.452.452,0,0,0,.051.268.206.206,0,0,0,.171.117h1.56c.185,0,.342-.2.371-.468l.015-.118.294-2.756.019-.152c.029-.27.186-.468.371-.468h.233c1.511,0,2.695-.908,3.041-3.534a4.212,4.212,0,0,0-.312-2.657,1.745,1.745,0,0,0-.427-.487" transform="translate(-2.323 89.033)" fill="#f7f8ff"/>
        <path id="Контур_129" data-name="Контур 129" d="M37.463-73.874q-.09-.04-.187-.071c-.064-.021-.13-.039-.2-.055a3.314,3.314,0,0,0-.775-.084h-2.35c-.185,0-.342.2-.371.469l-.5,4.684-.014.136c.032-.308.211-.535.422-.536h.88c1.728,0,3.081-1.038,3.476-4.04.012-.089.022-.175.031-.26a1.85,1.85,0,0,0-.325-.2l-.089-.041" transform="translate(-6.266 90.968)" fill="#cfd6fe"/>
      </g>
    </g>
  </g>
</svg>
